<svg version="1.1" id="Layer_1" xmlns="http://www.w3.org/2000/svg" xmlns:xlink="http://www.w3.org/1999/xlink" x="0px" y="0px"
	 width="100%" viewBox="0 0 292 82" enable-background="new 0 0 292 82" xml:space="preserve">
<path fill="#020202" opacity="1.000000" stroke="none" 
	d="
M200.000000,83.000000 
	C133.333359,83.000000 67.166702,83.000000 1.000044,83.000000 
	C1.000030,55.666695 1.000030,28.333389 1.000015,1.000042 
	C49.666626,1.000000 98.333252,1.000000 146.999878,1.000000 
	C195.666519,1.000000 244.333176,1.000000 292.999878,1.000000 
	C292.999908,28.333267 292.999908,55.666534 292.999939,82.999901 
	C262.166656,83.000000 231.333328,83.000000 200.000000,83.000000 
M104.829628,52.446587 
	C104.829628,53.895405 104.829628,55.344227 104.829628,56.978016 
	C109.708427,56.978016 114.124687,56.978016 119.003792,56.978016 
	C119.003792,50.224281 118.975761,43.604237 119.015976,36.984604 
	C119.035202,33.820343 119.463409,30.619207 123.580734,30.628727 
	C127.774223,30.638418 127.993683,33.888580 127.995651,37.046009 
	C127.999779,43.660759 127.996910,50.275505 127.996910,56.956219 
	C132.917740,56.956219 137.336105,56.956219 142.172409,56.956219 
	C142.172409,50.296944 142.028442,43.837730 142.256927,37.391724 
	C142.328918,35.360790 143.042603,33.123676 144.169342,31.459400 
	C144.701523,30.673321 147.460648,30.352715 148.221100,30.994278 
	C149.542725,32.109287 150.785370,34.107121 150.852219,35.783012 
	C151.134903,42.871933 150.972015,49.978622 150.972015,56.873951 
	C156.073730,56.873951 160.501160,56.873951 165.013794,56.873951 
	C165.013794,47.773212 165.303314,38.955681 164.927795,30.166569 
	C164.590195,22.265253 158.579666,17.662867 150.882248,19.367605 
	C147.483932,20.120224 144.390045,22.247288 141.158661,23.750044 
	C134.408493,17.037254 126.973663,17.482321 119.238434,24.004793 
	C119.041733,22.583475 118.889992,21.487030 118.737450,20.384796 
	C114.177261,20.384796 109.729881,20.384796 105.366058,20.384796 
	C105.150703,20.887928 104.920013,21.176474 104.918770,21.466009 
	C104.875633,31.461529 104.854172,41.457142 104.829628,52.446587 
M64.502594,43.843678 
	C66.056290,56.578308 77.795074,60.427006 89.632042,57.509129 
	C96.562843,55.800644 100.993843,51.009335 101.414970,43.743790 
	C101.863716,36.001709 101.515984,28.213459 101.515984,20.358673 
	C96.714302,20.358673 92.024582,20.358673 87.083427,20.358673 
	C87.083427,27.365110 87.347572,34.024498 86.895287,40.634865 
	C86.784019,42.261124 84.337250,43.727585 82.964172,45.267513 
	C81.417320,43.842804 79.668518,42.571976 78.413460,40.924919 
	C77.833611,40.163960 78.160378,38.667755 78.173683,37.506027 
	C78.315788,25.104300 70.099503,20.070902 59.185394,20.104219 
	C49.519855,20.133726 41.996243,25.481089 41.267262,33.424042 
	C40.546383,41.278713 41.109707,49.251247 41.109707,57.320770 
	C45.823772,57.320770 50.264362,57.320770 54.922485,57.320770 
	C55.017593,56.183369 55.157986,55.227455 55.167587,54.270229 
	C55.222656,48.780087 54.921204,43.256573 55.473412,37.818787 
	C55.646072,36.118488 58.092808,34.649117 59.498589,33.074039 
	C60.992882,34.562531 62.918411,35.826176 63.848000,37.609097 
	C64.622025,39.093666 64.226768,41.187874 64.502594,43.843678 
M168.394974,30.211575 
	C165.157791,39.178612 166.418900,47.445492 173.384018,54.024780 
	C179.490585,59.793079 186.592361,59.265778 192.030609,55.935654 
	C198.041489,58.616680 203.064621,57.001930 208.178986,57.563496 
	C208.178986,50.826672 208.179001,44.686642 208.179001,38.546612 
	C208.179001,32.481495 208.178986,26.416376 208.178986,20.156963 
	C203.627045,20.156963 199.815918,20.050322 196.015915,20.209303 
	C194.489990,20.273144 192.781342,21.590954 191.508194,21.197598 
	C179.898712,17.610651 174.587357,19.472944 168.394974,30.211575 
M212.798843,20.163870 
	C212.199799,20.760952 211.083557,21.353434 211.078201,21.955793 
	C210.974884,33.575062 211.001709,45.195496 211.001709,56.930965 
	C215.998795,56.930965 220.566605,56.930965 225.533951,56.930965 
	C225.533951,50.050396 225.479431,43.409569 225.557678,36.770306 
	C225.594971,33.606735 226.098862,30.577850 230.333466,30.628048 
	C234.709198,30.679918 234.755859,33.944283 234.794403,36.989197 
	C234.878052,43.600159 234.820190,50.212914 234.820190,56.861629 
	C239.865158,56.861629 244.413864,56.861629 249.177429,56.861629 
	C249.177429,49.402130 249.182999,42.256554 249.172455,35.111000 
	C249.170502,33.778782 249.160187,32.442341 249.058151,31.115196 
	C248.343369,21.816803 240.999725,16.903400 232.143051,19.953533 
	C230.004913,20.689886 228.100464,22.104795 227.040436,22.685867 
	C225.086319,21.656778 223.720734,20.443977 222.227097,20.257648 
	C219.437958,19.909698 216.574432,20.157906 212.798843,20.163870 
z"/>
<path fill="#FCFCFC" opacity="1.000000" stroke="none" 
	d="
M104.829620,51.949665 
	C104.854172,41.457142 104.875633,31.461529 104.918770,21.466009 
	C104.920013,21.176474 105.150703,20.887928 105.366058,20.384796 
	C109.729881,20.384796 114.177261,20.384796 118.737450,20.384796 
	C118.889992,21.487030 119.041733,22.583475 119.238434,24.004793 
	C126.973663,17.482321 134.408493,17.037254 141.158661,23.750044 
	C144.390045,22.247288 147.483932,20.120224 150.882248,19.367605 
	C158.579666,17.662867 164.590195,22.265253 164.927795,30.166569 
	C165.303314,38.955681 165.013794,47.773212 165.013794,56.873951 
	C160.501160,56.873951 156.073730,56.873951 150.972015,56.873951 
	C150.972015,49.978622 151.134903,42.871933 150.852219,35.783012 
	C150.785370,34.107121 149.542725,32.109287 148.221100,30.994278 
	C147.460648,30.352715 144.701523,30.673321 144.169342,31.459400 
	C143.042603,33.123676 142.328918,35.360790 142.256927,37.391724 
	C142.028442,43.837730 142.172409,50.296944 142.172409,56.956219 
	C137.336105,56.956219 132.917740,56.956219 127.996910,56.956219 
	C127.996910,50.275505 127.999779,43.660759 127.995651,37.046009 
	C127.993683,33.888580 127.774223,30.638418 123.580734,30.628727 
	C119.463409,30.619207 119.035202,33.820343 119.015976,36.984604 
	C118.975761,43.604237 119.003792,50.224281 119.003792,56.978016 
	C114.124687,56.978016 109.708427,56.978016 104.829628,56.978016 
	C104.829628,55.344227 104.829628,53.895405 104.829620,51.949665 
z"/>
<path fill="#F9F9F9" opacity="1.000000" stroke="none" 
	d="
M64.426010,43.427868 
	C64.226768,41.187874 64.622025,39.093666 63.848000,37.609097 
	C62.918411,35.826176 60.992882,34.562531 59.498589,33.074036 
	C58.092808,34.649117 55.646072,36.118488 55.473412,37.818787 
	C54.921204,43.256573 55.222656,48.780087 55.167587,54.270229 
	C55.157986,55.227455 55.017593,56.183369 54.922485,57.320770 
	C50.264362,57.320770 45.823772,57.320770 41.109707,57.320770 
	C41.109707,49.251247 40.546383,41.278713 41.267262,33.424042 
	C41.996243,25.481089 49.519855,20.133726 59.185394,20.104219 
	C70.099503,20.070902 78.315788,25.104300 78.173683,37.506027 
	C78.160378,38.667755 77.833611,40.163960 78.413460,40.924919 
	C79.668518,42.571976 81.417320,43.842804 82.964172,45.267509 
	C84.337250,43.727585 86.784019,42.261124 86.895287,40.634865 
	C87.347572,34.024498 87.083427,27.365110 87.083427,20.358673 
	C92.024582,20.358673 96.714302,20.358673 101.515984,20.358673 
	C101.515984,28.213459 101.863716,36.001709 101.414970,43.743790 
	C100.993843,51.009335 96.562843,55.800644 89.632042,57.509129 
	C77.795074,60.427006 66.056290,56.578308 64.426010,43.427868 
z"/>
<path fill="#F9F9F9" opacity="1.000000" stroke="none" 
	d="
M168.592194,29.873539 
	C174.587357,19.472944 179.898712,17.610651 191.508194,21.197598 
	C192.781342,21.590954 194.489990,20.273144 196.015915,20.209303 
	C199.815918,20.050322 203.627045,20.156963 208.178986,20.156963 
	C208.178986,26.416376 208.179001,32.481495 208.179001,38.546612 
	C208.179001,44.686642 208.178986,50.826672 208.178986,57.563496 
	C203.064621,57.001930 198.041489,58.616680 192.030609,55.935654 
	C186.592361,59.265778 179.490585,59.793079 173.384018,54.024780 
	C166.418900,47.445492 165.157791,39.178612 168.592194,29.873539 
M183.375977,31.296175 
	C182.469040,32.237911 181.383560,33.064362 180.687576,34.142296 
	C178.292679,37.851421 178.868073,41.524029 181.733963,44.586048 
	C184.256851,47.281616 187.476028,47.804649 190.721848,45.624802 
	C194.437408,43.129486 195.158188,39.408260 193.807388,35.551922 
	C192.237000,31.068558 188.587097,29.936651 183.375977,31.296175 
z"/>
<path fill="#FAFAFA" opacity="1.000000" stroke="none" 
	d="
M213.270355,20.160957 
	C216.574432,20.157906 219.437958,19.909698 222.227097,20.257648 
	C223.720734,20.443977 225.086319,21.656778 227.040436,22.685867 
	C228.100464,22.104795 230.004913,20.689886 232.143051,19.953533 
	C240.999725,16.903400 248.343369,21.816803 249.058151,31.115196 
	C249.160187,32.442341 249.170502,33.778782 249.172455,35.111000 
	C249.182999,42.256554 249.177429,49.402130 249.177429,56.861629 
	C244.413864,56.861629 239.865158,56.861629 234.820190,56.861629 
	C234.820190,50.212914 234.878052,43.600159 234.794403,36.989197 
	C234.755859,33.944283 234.709198,30.679918 230.333466,30.628048 
	C226.098862,30.577850 225.594971,33.606735 225.557678,36.770306 
	C225.479431,43.409569 225.533951,50.050396 225.533951,56.930965 
	C220.566605,56.930965 215.998795,56.930965 211.001709,56.930965 
	C211.001709,45.195496 210.974884,33.575062 211.078201,21.955793 
	C211.083557,21.353434 212.199799,20.760952 213.270355,20.160957 
z"/>
<path fill="#080808" opacity="1.000000" stroke="none" 
	d="
M183.760330,31.155567 
	C188.587097,29.936651 192.237000,31.068558 193.807388,35.551922 
	C195.158188,39.408260 194.437408,43.129486 190.721848,45.624802 
	C187.476028,47.804649 184.256851,47.281616 181.733963,44.586048 
	C178.868073,41.524029 178.292679,37.851421 180.687576,34.142296 
	C181.383560,33.064362 182.469040,32.237911 183.760330,31.155567 
z"/>
</svg>